<svg xmlns="http://www.w3.org/2000/svg" height="512pt" viewBox="0 50 512.11703 512" width="512pt"><path d="m411.304688 330.023438 32.425781 20.480468c17.074219 10.519532 29.355469 27.304688 34.21875 46.761719l15.957031 63.742187c2.550781 10.199219.257812 21-6.207031 29.285157-6.46875 8.28125-16.390625 13.125-26.902344 13.128906h-408.574219c-10.511718-.003906-20.433594-4.847656-26.898437-13.128906-6.46875-8.285157-8.757813-19.085938-6.210938-29.285157l15.957031-63.742187c4.863282-19.457031 17.144532-36.242187 34.21875-46.761719l31.574219-19.882812zm0 0" fill="#4482c3"/><path d="m256 255.953125h-128.691406c-10.28125-.007813-20.015625 4.617187-26.503906 12.589844-6.488282 7.972656-9.035157 18.445312-6.941407 28.507812l34.136719 163.703125h256l34.132812-163.703125c2.097657-10.0625-.453124-20.535156-6.941406-28.507812-6.488281-7.972657-16.222656-12.597657-26.5-12.589844zm0 0" fill="#d1d4d1"/><path d="m128 460.753906h256c9.425781 0 17.066406 7.640625 17.066406 17.066406v8.535157c0 9.425781-7.640625 17.066406-17.066406 17.066406h-256c-9.425781 0-17.066406-7.640625-17.066406-17.066406v-8.535157c0-9.425781 7.640625-17.066406 17.066406-17.066406zm0 0" fill="#a5a5a4"/><path d="m345.171875 255.953125c8.636719-21.726563 13.125-44.882813 13.226563-68.265625 0-59.734375-25.601563-119.46875-102.398438-119.46875-76.800781 0-102.402344 59.734375-102.402344 119.46875.101563 23.382812 4.589844 46.539062 13.226563 68.265625" fill="#4482c3"/><path d="m310.183594 255.953125c9.570312-20.113281 14.386718-42.15625 14.082031-64.425781 0-62.378906-34.132813-89.171875-68.265625-89.171875-34.136719 0-68.269531 26.792969-68.269531 89.171875-.304688 22.269531 4.511719 44.3125 14.082031 64.425781" fill="#285680"/><path d="m246.859375 308.101562c-15.300781 3.320313-27.542969 14.777344-31.867187 29.828126-4.320313 15.050781-.027344 31.257812 11.183593 42.191406 2.710938 2.679687 4.234375 6.335937 4.222657 10.148437v2.21875c0 9.425781 7.640624 17.066407 17.066406 17.066407h17.066406c9.425781 0 17.066406-7.640626 17.066406-17.066407v-2.21875c-.027344-3.789062 1.476563-7.425781 4.171875-10.085937 8.234375-7.957032 12.890625-18.914063 12.894531-30.363282-.003906-12.921874-5.859374-25.144531-15.921874-33.25-10.066407-8.105468-23.257813-11.21875-35.882813-8.46875zm0 0" fill="#ebeced"/><path d="m281.597656 358.355469c0 4.710937-3.820312 8.53125-8.53125 8.53125-4.714844 0-8.535156-3.820313-8.535156-8.53125 0-4.714844 3.820312-8.535157 8.535156-8.535157 4.710938 0 8.53125 3.820313 8.53125 8.535157zm0 0" fill="#5e5f62"/><path d="m247.464844 358.355469c0 4.710937-3.820313 8.53125-8.53125 8.53125-4.714844 0-8.535156-3.820313-8.535156-8.53125 0-4.714844 3.820312-8.535157 8.535156-8.535157 4.710937 0 8.53125 3.820313 8.53125 8.535157zm0 0" fill="#5e5f62"/></svg>